<?xml version="1.0" standalone="yes"?>
<svg xmlns="http://www.w3.org/2000/svg" width="200" height="200">
<path style="fill:#ffffff; stroke:none;" d="M0 0L0 200L200 200L200 0L0 0z"/>
<path style="fill:#f1c9bc; stroke:none;" d="M25 68C26.2483 68.6848 26.5485 68.7488 28 69C26.7516 68.3152 26.4516 68.2512 25 68z"/>
<path style="fill:#ea9c66; stroke:none;" d="M22 72C23.4566 70.8966 23.8966 70.4566 25 69C22.8764 69.8993 22.8993 69.8764 22 72z"/>
<path style="fill:#eca781; stroke:none;" d="M25 69C26.6481 69.9241 28.1749 70.4494 30 71C28.4602 69.1969 27.4025 69.168 25 69z"/>
<path style="fill:#ffffff; stroke:none;" d="M24.3218 71.0471C20.0776 73.7137 24.7206 79.4396 28.6782 76.9529C32.9224 74.2863 28.2794 68.5604 24.3218 71.0471z"/>
<path style="fill:#e47937; stroke:none;" d="M30 70L31 71L30 70z"/>
<path style="fill:#ea9e6a; stroke:none;" d="M30 71L31 77C32.0395 74.4708 32.0932 72.8244 30 71z"/>
<path style="fill:#ea9f74; stroke:none;" d="M21 72L21 76C21.7102 74.2405 21.7102 73.7595 21 72z"/>
<path style="fill:#eca572; stroke:none;" d="M22 76C22.6836 77.58 22.8048 77.7772 24 79C23.3164 77.42 23.1952 77.2228 22 76z"/>
<path style="fill:#f1c9bc; stroke:none;" d="M30 76L31 77L30 76z"/>
<path style="fill:#f3cbb7; stroke:none;" d="M29 77L30 78L29 77z"/>
<path style="fill:#e68754; stroke:none;" d="M30 77L31 78L30 77z"/>
<path style="fill:#e37215; stroke:none;" d="M24 78L25 79L24 78z"/>
<path style="fill:#eeb8a6; stroke:none;" d="M23 92L25 92C25 87.1114 24.3141 82.6095 28 79C21.2206 77.1415 23 87.8842 23 92z"/>
<path style="fill:#e68648; stroke:none;" d="M28.6667 78.3333C28.2222 78.7778 29.2778 78.7222 29.3333 78.6667C29.7778 78.2222 28.7222 78.2778 28.6667 78.3333z"/>
<path style="fill:#eca572; stroke:none;" d="M26 79C27.2484 79.6848 27.5484 79.7488 29 80L29 92C30.6611 88.0413 30 83.2634 30 79L26 79z"/>
<path style="fill:#ffffff; stroke:none;" d="M25 80L25 92L29 92L29 80L25 80z"/>
<path style="fill:#f8e6e1; stroke:none;" d="M80 88C81.506 88.683 82.3148 88.8259 84 89C82.4939 88.317 81.6852 88.1741 80 88M88 88C89.506 88.683 90.3148 88.8259 92 89C90.494 88.317 89.6852 88.1741 88 88M94 88C95.506 88.683 96.3148 88.8259 98 89C96.4939 88.317 95.6852 88.1741 94 88M113 88C114.506 88.683 115.315 88.8259 117 89C115.494 88.317 114.685 88.1741 113 88M130 88C131.769 88.7789 133.036 88.9124 135 89C133.231 88.2211 131.964 88.0876 130 88M150 88C151.506 88.683 152.315 88.8259 154 89C152.494 88.317 151.685 88.1741 150 88z"/>
<path style="fill:#faece7; stroke:none;" d="M79 89L79 108C81.0196 103.187 81.0196 93.8129 79 89z"/>
<path style="fill:#e37215; stroke:none;" d="M80 89L80 107L83 107C83.1389 102.735 83.708 100.303 88 99L88 107L91 107L91 89L88 89L88 97C83.708 95.6971 83.1389 93.265 83 89L80 89z"/>
<path style="fill:#eeac7b; stroke:none;" d="M83 89L83 96C84.0595 93.4657 84.0595 91.5343 83 89z"/>
<path style="fill:#eca572; stroke:none;" d="M91 89C91 94.383 92.9952 103.762 88 107C89.5061 107.683 90.3148 107.826 92 108C92 102.099 93.295 94.4692 91 89z"/>
<path style="fill:#e78f66; stroke:none;" d="M94 89L94 92C94.6961 90.4463 94.6961 90.5537 94 89z"/>
<path style="fill:#e37215; stroke:none;" d="M95 89L95 92L97 92L97 89L95 89z"/>
<path style="fill:#ea9e69; stroke:none;" d="M97 89L97 92C97.6961 90.4463 97.6961 90.5537 97 89z"/>
<path style="fill:#e78c50; stroke:none;" d="M113 89L113 107C114.952 102.349 114.952 93.651 113 89z"/>
<path style="fill:#e37215; stroke:none;" d="M114 89L114 107L116 107C116.004 102.339 115.548 98.4547 120 96C120.687 99.7005 120.99 103.237 121 107L123 107C123 100.788 124.435 93.2447 116 95L116 89L114 89z"/>
<path style="fill:#eaa58b; stroke:none;" d="M116 89C116.077 91.6451 115.997 93.2659 118 95C117.439 92.8976 116.951 90.9407 116 89z"/>
<path style="fill:#e37215; stroke:none;" d="M129.419 90.0285C122.904 94.3183 127.038 111.594 135.581 105.971C142.077 101.696 137.833 84.4888 129.419 90.0285z"/>
<path style="fill:#f8e4de; stroke:none;" d="M149 89L149 108C151.02 103.187 151.02 93.8129 149 89z"/>
<path style="fill:#e37215; stroke:none;" d="M150 89L150 107L159 107L159 105L153 105L153 89L150 89z"/>
<path style="fill:#efb383; stroke:none;" d="M153 89L153 105C154.812 100.681 154.812 93.3189 153 89z"/>
<path style="fill:#f0bb9a; stroke:none;" d="M127 91L128 92L127 91z"/>
<path style="fill:#e78c50; stroke:none;" d="M131 91C132.248 91.6848 132.548 91.7488 134 92C132.752 91.3152 132.452 91.2512 131 91z"/>
<path style="fill:#f2c3a6; stroke:none;" d="M137 91L138 92L137 91z"/>
<path style="fill:#e37215; stroke:none;" d="M18 92C22.7238 93.9822 28.9099 93 34 93C29.2762 91.0178 23.0902 92 18 92z"/>
<path style="fill:#f8e6e1; stroke:none;" d="M94 92L94 94L98 94L98 92L94 92z"/>
<path style="fill:#ffffff; stroke:none;" d="M131 92C129.917 96.5491 130.152 100.431 131 105C135.913 102.13 135.183 96.9708 134 92L131 92z"/>
<path style="fill:#e89157; stroke:none;" d="M137 92L138 93L137 92z"/>
<path style="fill:#efbda9; stroke:none;" d="M17.6667 93.3333C17.2222 93.7778 18.2778 93.7222 18.3333 93.6667C18.7778 93.2222 17.7222 93.2778 17.6667 93.3333z"/>
<path style="fill:#ea9e69; stroke:none;" d="M34 93C30.3116 95.7943 25.481 95 21 95C25.5703 96.9178 31.1057 95.8348 36 97C35.436 95.248 35.0811 94.458 34 93z"/>
<path style="fill:#f8e4de; stroke:none;" d="M103 93C104.248 93.6848 104.548 93.7488 106 94C104.752 93.3152 104.452 93.2512 103 93M108 93C109.248 93.6848 109.548 93.7488 111 94C109.752 93.3152 109.452 93.2512 108 93M118 93C119.506 93.683 120.315 93.8259 122 94C120.494 93.317 119.685 93.1741 118 93z"/>
<path style="fill:#ea9d79; stroke:none;" d="M130 93L131 94L130 93M134 93L135 94L134 93z"/>
<path style="fill:#f8e4de; stroke:none;" d="M141 93C142.248 93.6848 142.548 93.7488 144 94C142.752 93.3152 142.452 93.2512 141 93M146.667 93.3333C146.222 93.7777 147.278 93.7223 147.333 93.6667C147.778 93.2222 146.722 93.2778 146.667 93.3333M163 93C165.332 93.9845 167.457 93.9813 170 94C167.668 93.0155 165.543 93.0187 163 93M174 93C175.248 93.6848 175.548 93.7488 177 94C175.752 93.3152 175.452 93.2512 174 93M180 93C181.506 93.683 182.315 93.8259 184 94C182.494 93.317 181.685 93.1741 180 93M187 93C188.248 93.6848 188.548 93.7488 190 94C188.752 93.3152 188.452 93.2512 187 93z"/>
<path style="fill:#e58034; stroke:none;" d="M17.3333 94.6667C17.2778 94.7222 17.2222 95.7778 17.6667 95.3333C17.7222 95.2778 17.7778 94.2222 17.3333 94.6667z"/>
<path style="fill:#f2c2aa; stroke:none;" d="M35 94L36 95L35 94z"/>
<path style="fill:#ea9e69; stroke:none;" d="M94 94L94 108L98 108L98 94C96.3389 97.9587 97 102.737 97 107L95 107C95 102.737 95.6611 97.9587 94 94z"/>
<path style="fill:#e37215; stroke:none;" d="M95 94L95 107L97 107L97 94L95 94M108 106C106.444 108.85 105.207 109.503 102 110C112.267 114.262 110 100.081 110 94C107.499 94.1575 103.911 93.6346 102.009 95.6142C96.8289 101.008 101.701 107.307 108 106z"/>
<path style="fill:#f2c8b8; stroke:none;" d="M106.667 94.3333C106.222 94.7778 107.278 94.7222 107.333 94.6667C107.778 94.2222 106.722 94.2778 106.667 94.3333z"/>
<path style="fill:#e78f66; stroke:none;" d="M110 94L110 108C111.667 104.028 111.667 97.9721 110 94z"/>
<path style="fill:#eeb8a6; stroke:none;" d="M126 94L127 95L126 94M138 94L139 95L138 94z"/>
<path style="fill:#e9955e; stroke:none;" d="M141 94L141 107C142.591 103.209 142.591 97.7913 141 94z"/>
<path style="fill:#e37215; stroke:none;" d="M142 94L142 107L144 107L144 97C146.739 96.7893 147.422 96.6975 148 94C146.42 94.6836 146.223 94.8048 145 96C143.814 94.8137 143.416 94.4721 142 94z"/>
<path style="fill:#e89157; stroke:none;" d="M143 94L144 95L143 94z"/>
<path style="fill:#eca572; stroke:none;" d="M145 94L146 95L145 94z"/>
<path style="fill:#e37215; stroke:none;" d="M163.513 95.0285C158.114 98.8641 163.157 110.861 169.397 105.971C173.804 102.518 170.056 90.3801 163.513 95.0285z"/>
<path style="fill:#f7dcd3; stroke:none;" d="M173 94L173 103C174.256 100.006 174.256 96.9941 173 94z"/>
<path style="fill:#e37215; stroke:none;" d="M174 94C174 97.1639 173.176 101.918 175.028 104.681C177.047 107.695 185.637 108.056 188.062 105.394C190.564 102.646 189.991 97.419 190 94L187 94C186.996 98.6609 187.452 102.545 183 105L183 94L180 94L180 105C176.738 101.805 177.003 98.3858 177 94L174 94z"/>
<path style="fill:#f5d2c5; stroke:none;" d="M177 94L177 102C178.161 99.2301 178.161 96.7699 177 94z"/>
<path style="fill:#eca572; stroke:none;" d="M183 94L183 105C184.431 101.59 184.431 97.41 183 94z"/>
<path style="fill:#f4d8cf; stroke:none;" d="M186 94L186 103C187.256 100.006 187.256 96.9941 186 94z"/>
<path style="fill:#ea9e69; stroke:none;" d="M13 95C14.5061 95.683 15.3148 95.8259 17 96C15.494 95.317 14.6852 95.1741 13 95z"/>
<path style="fill:#f1b98a; stroke:none;" d="M18 95C18.4057 97.0924 18.2167 97.0198 20 98C19.3164 96.42 19.1952 96.2228 18 95z"/>
<path style="fill:#eca67b; stroke:none;" d="M101 95L102 96L101 95z"/>
<path style="fill:#e99861; stroke:none;" d="M144 95L145 96L144 95z"/>
<path style="fill:#ea9a64; stroke:none;" d="M170 95L171 96L170 95z"/>
<path style="fill:#eeb294; stroke:none;" d="M12 96C12.5451 97.6352 12.3648 97.4549 14 98L14 96L12 96z"/>
<path style="fill:#ffffff; stroke:none;" d="M14 96L14 98L18 98L18 96L14 96z"/>
<path style="fill:#eaa58b; stroke:none;" d="M84 96C85.5061 96.683 86.3148 96.8259 88 97C86.4939 96.317 85.6852 96.1741 84 96M104 96C105.248 96.6848 105.548 96.7488 107 97C105.752 96.3152 105.452 96.2512 104 96M117 96C118.248 96.6848 118.548 96.7488 120 97C118.752 96.3152 118.452 96.2512 117 96z"/>
<path style="fill:#eda978; stroke:none;" d="M123.333 96.6667C123.278 96.7222 123.222 97.7778 123.667 97.3333C123.722 97.2778 123.778 96.2222 123.333 96.6667z"/>
<path style="fill:#e89057; stroke:none;" d="M129 96L129 100C129.71 98.2405 129.71 97.7595 129 96M135 96L135 100C135.71 98.2405 135.71 97.7595 135 96z"/>
<path style="fill:#e8955c; stroke:none;" d="M161.333 96.6667C161.278 96.7222 161.222 97.7778 161.667 97.3333C161.722 97.2778 161.778 96.2222 161.333 96.6667z"/>
<path style="fill:#eaa58b; stroke:none;" d="M165.667 96.3333C165.222 96.7777 166.278 96.7222 166.333 96.6667C166.778 96.2222 165.722 96.2778 165.667 96.3333z"/>
<path style="fill:#e37215; stroke:none;" d="M12 97C15.613 101.135 26.7506 99 32 99C25.9872 96.4769 18.4399 98.5332 12 97z"/>
<path style="fill:#ea9d79; stroke:none;" d="M100 97L101 98L100 97z"/>
<path style="fill:#ffffff; stroke:none;" d="M104 97L104 104L107 104L107 97L104 97z"/>
<path style="fill:#ea9e69; stroke:none;" d="M107 97L107 104C108.059 101.466 108.059 99.5343 107 97z"/>
<path style="fill:#eaa58b; stroke:none;" d="M116 97C115.997 100.987 116.598 104.668 113 107C114.506 107.683 115.315 107.826 117 108C117 104.3 117.44 100.432 116 97M144 97C143.997 100.987 144.598 104.668 141 107C142.506 107.683 143.315 107.826 145 108C145.003 104.013 144.402 100.332 148 98C146.494 97.317 145.685 97.1741 144 97z"/>
<path style="fill:#ffffff; stroke:none;" d="M165 97L165 105C168.089 102.998 167.959 100.536 168 97L165 97z"/>
<path style="fill:#e89259; stroke:none;" d="M171 97L171 104C172.059 101.466 172.059 99.5343 171 97z"/>
<path style="fill:#f9e9e4; stroke:none;" d="M99 98L99 103C99.8299 100.97 99.8299 100.03 99 98z"/>
<path style="fill:#eeaf7e; stroke:none;" d="M103 98L103 103C103.83 100.97 103.83 100.03 103 98z"/>
<path style="fill:#eeb8a6; stroke:none;" d="M120 98L120 108C121.346 104.793 121.346 101.207 120 98z"/>
<path style="fill:#e78c50; stroke:none;" d="M123 98L123 107C124.256 104.006 124.256 100.994 123 98z"/>
<path style="fill:#f6ddd6; stroke:none;" d="M164 98L164 103C164.83 100.969 164.83 100.03 164 98z"/>
<path style="fill:#e99764; stroke:none;" d="M11 99L12 100L11 99z"/>
<path style="fill:#f8e4de; stroke:none;" d="M12 99C17.7147 101.398 25.8308 100 32 100C26.2853 97.602 18.1692 99 12 99z"/>
<path style="fill:#efbcab; stroke:none;" d="M37.3333 99.6667C37.2778 99.7222 37.2222 100.778 37.6667 100.333C37.7223 100.278 37.7777 99.2222 37.3333 99.6667z"/>
<path style="fill:#eeac7b; stroke:none;" d="M38 99C39.506 99.683 40.3148 99.8259 42 100C40.494 99.317 39.6852 99.1741 38 99M60 101C62.2317 100.637 63.7683 100.637 66 101C64.0532 98.7691 61.9468 98.7691 60 101z"/>
<path style="fill:#ea9e69; stroke:none;" d="M84 99C85.5061 99.683 86.3148 99.8259 88 100C86.494 99.317 85.6852 99.1741 84 99z"/>
<path style="fill:#e89470; stroke:none;" d="M10 100L11 101L10 100z"/>
<path style="fill:#f7dcd3; stroke:none;" d="M11 100L11 108C12.1614 105.23 12.1614 102.77 11 100z"/>
<path style="fill:#f2d0c6; stroke:none;" d="M34 100L35 101L34 100z"/>
<path style="fill:#e47937; stroke:none;" d="M35.6667 100.333C35.2222 100.778 36.2778 100.722 36.3333 100.667C36.7777 100.222 35.7222 100.278 35.6667 100.333z"/>
<path style="fill:#f8e6e1; stroke:none;" d="M38 100C39.5061 100.683 40.3148 100.826 42 101C40.494 100.317 39.6852 100.174 38 100z"/>
<path style="fill:#e68648; stroke:none;" d="M42.6667 100.333C42.2222 100.778 43.2778 100.722 43.3333 100.667C43.7778 100.222 42.7222 100.278 42.6667 100.333z"/>
<path style="fill:#eeac7b; stroke:none;" d="M58 100C53.4419 101.347 48.7301 101 44 101C46.2302 102.285 59.3246 103.208 58 100z"/>
<path style="fill:#e47937; stroke:none;" d="M59 100L60 101L59 100z"/>
<path style="fill:#f8e6e1; stroke:none;" d="M61 100C62.506 100.683 63.3148 100.826 65 101C63.494 100.317 62.6852 100.174 61 100z"/>
<path style="fill:#e78c50; stroke:none;" d="M66.6667 100.333C66.2222 100.778 67.2778 100.722 67.3333 100.667C67.7778 100.222 66.7222 100.278 66.6667 100.333z"/>
<path style="fill:#eeac7b; stroke:none;" d="M83 100C82.8951 103.285 82.8178 105.177 80 107C81.5061 107.683 82.3148 107.826 84 108C83.9928 105.165 84.0977 102.613 83 100z"/>
<path style="fill:#e68754; stroke:none;" d="M168.333 100.667C168.278 100.722 168.222 101.778 168.667 101.333C168.722 101.278 168.778 100.222 168.333 100.667z"/>
<path style="fill:#e37215; stroke:none;" d="M10 101L10 109C11.1614 106.23 11.1614 103.77 10 101z"/>
<path style="fill:#eda977; stroke:none;" d="M33 101L33 103C34.6352 102.455 34.455 102.635 35 101L33 101z"/>
<path style="fill:#ffffff; stroke:none;" d="M70 131C70.53 124.284 74.9797 112.118 71.8171 106.044C70.4403 103.4 67.9006 101.724 64.9992 101.232C60.8219 100.524 57.077 102.568 53 102.892C46.4211 103.415 38.1883 97.9568 32.5725 103.573C28.2473 107.898 29.8994 117.408 30.0046 123C30.0485 125.331 29.9339 128.592 32.3171 129.914C35.0656 131.438 37.6321 128.901 39.24 126.941C42.8193 122.579 44.5104 117.039 51.0039 117.039C60.3789 117.039 61.6825 128.616 70 131z"/>
<path style="fill:#f4d0bf; stroke:none;" d="M67 101L68 102L67 101z"/>
<path style="fill:#edac88; stroke:none;" d="M68 101C69.3303 102.753 70.2475 103.67 72 105C70.8465 102.751 70.2489 102.154 68 101z"/>
<path style="fill:#e89468; stroke:none;" d="M126 101L127 102L126 101z"/>
<path style="fill:#e99b76; stroke:none;" d="M138 101L139 102L138 101z"/>
<path style="fill:#e37215; stroke:none;" d="M32 102L33 103L32 102z"/>
<path style="fill:#efb180; stroke:none;" d="M35 105C38.5117 104.265 40.6949 104.626 44 106C41.7696 102.185 37.7633 101.106 35 105z"/>
<path style="fill:#f8e6e1; stroke:none;" d="M46 102C49.4324 103.44 53.2998 103 57 103C53.5676 101.56 49.7002 102 46 102z"/>
<path style="fill:#ecaf99; stroke:none;" d="M62 102C62 103.797 62.0143 103.521 63 105L68 104C65.9868 102.775 64.3415 102.355 62 102z"/>
<path style="fill:#f1c9bc; stroke:none;" d="M130 102L131 103L130 102z"/>
<path style="fill:#f1c5b7; stroke:none;" d="M134 102L135 103L134 102z"/>
<path style="fill:#eca876; stroke:none;" d="M177.333 102.667C177.278 102.722 177.222 103.778 177.667 103.333C177.722 103.278 177.778 102.222 177.333 102.667z"/>
<path style="fill:#e89056; stroke:none;" d="M189 102L189 105C189.696 103.446 189.696 103.554 189 102z"/>
<path style="fill:#e99968; stroke:none;" d="M31 103L32 104L31 103z"/>
<path style="fill:#ea9b65; stroke:none;" d="M60.6667 103.333C60.2222 103.778 61.2778 103.722 61.3333 103.667C61.7777 103.222 60.7223 103.278 60.6667 103.333z"/>
<path style="fill:#eba16e; stroke:none;" d="M161.333 103.667C161.278 103.722 161.222 104.778 161.667 104.333C161.722 104.278 161.778 103.222 161.333 103.667z"/>
<path style="fill:#e89468; stroke:none;" d="M164 103L165 104L164 103M186 103L187 104L186 103z"/>
<path style="fill:#e68648; stroke:none;" d="M30.3333 104.667C30.2778 104.722 30.2222 105.778 30.6667 105.333C30.7222 105.278 30.7778 104.222 30.3333 104.667z"/>
<path style="fill:#f1bfa7; stroke:none;" d="M31 104L32 105L31 104z"/>
<path style="fill:#e47937; stroke:none;" d="M34 104L35 105L34 104z"/>
<path style="fill:#ffffff; stroke:none;" d="M36.1481 105.032C29.886 108.612 35.936 117.349 41.8519 113.968C48.114 110.388 42.064 101.651 36.1481 105.032z"/>
<path style="fill:#e57d41; stroke:none;" d="M59 104L58 106C59.2627 105.029 59.3919 105.306 59 104z"/>
<path style="fill:#ffffff; stroke:none;" d="M63 115C60.2849 110.45 60.2849 108.55 63 104C56.7346 105.902 56.7346 113.098 63 115M65 104C66.2147 106.001 66.999 106.785 69 108C67.8465 105.751 67.2489 105.154 65 104z"/>
<path style="fill:#e89470; stroke:none;" d="M67 104C68.1034 105.457 68.5434 105.897 70 107C69.1007 104.876 69.1236 104.899 67 104z"/>
<path style="fill:#f2d0c6; stroke:none;" d="M100 104L101 105L100 104z"/>
<path style="fill:#efaf7f; stroke:none;" d="M127 104L128 105L127 104z"/>
<path style="fill:#efb79d; stroke:none;" d="M133 104L134 105L133 104z"/>
<path style="fill:#efaf7f; stroke:none;" d="M137 104L138 105L137 104z"/>
<path style="fill:#f8e6e1; stroke:none;" d="M154 104C155.769 104.779 157.036 104.912 159 105C157.231 104.221 155.964 104.088 154 104z"/>
<path style="fill:#f1b998; stroke:none;" d="M167 104L168 105L167 104z"/>
<path style="fill:#f3c7b3; stroke:none;" d="M171 104L172 105L171 104z"/>
<path style="fill:#eca572; stroke:none;" d="M33.3333 105.667C33.2778 105.722 33.2222 106.778 33.6667 106.333C33.7222 106.278 33.7778 105.222 33.3333 105.667z"/>
<path style="fill:#f2caba; stroke:none;" d="M34 105L35 106L34 105z"/>
<path style="fill:#eca780; stroke:none;" d="M38.6667 105.333C38.2222 105.778 39.2778 105.722 39.3333 105.667C39.7778 105.222 38.7222 105.278 38.6667 105.333z"/>
<path style="fill:#ea9d71; stroke:none;" d="M44 105C44.5244 108.175 44.5244 110.825 44 114C46.3246 110.928 46.3246 108.072 44 105z"/>
<path style="fill:#e89470; stroke:none;" d="M62 108C64.2974 107.326 64.7741 107.035 66 105C63.2614 105.211 62.578 105.303 62 108z"/>
<path style="fill:#e78f66; stroke:none;" d="M72.3333 105.667C72.2778 105.722 72.2222 106.778 72.6667 106.333C72.7222 106.278 72.7778 105.222 72.3333 105.667z"/>
<path style="fill:#f7dcd3; stroke:none;" d="M159 105L159 108C159.696 106.446 159.696 106.554 159 105z"/>
<path style="fill:#f4cfbb; stroke:none;" d="M189 105L190 106L189 105z"/>
<path style="fill:#eca572; stroke:none;" d="M29 106C29 112.747 27.5286 121.426 29.3179 127.941C30.7764 133.252 36.0743 131.984 39 129C24.9104 132.942 32.2116 113.654 29 106z"/>
<path style="fill:#efb07f; stroke:none;" d="M37 106C37.9802 107.783 37.9076 107.594 40 108C38.8606 106.985 38.3884 106.691 37 106z"/>
<path style="fill:#f3c7b4; stroke:none;" d="M38.6667 106.333C38.2222 106.778 39.2778 106.722 39.3333 106.667C39.7778 106.222 38.7222 106.278 38.6667 106.333z"/>
<path style="fill:#e47a30; stroke:none;" d="M40.3333 106.667C40.2778 106.722 40.2222 107.778 40.6667 107.333C40.7223 107.278 40.7778 106.222 40.3333 106.667z"/>
<path style="fill:#f0b687; stroke:none;" d="M57 106L57 113C58.0595 110.466 58.0595 108.534 57 106z"/>
<path style="fill:#efbdac; stroke:none;" d="M61 106C60.0143 107.479 60 107.203 60 109C61.2892 107.557 61.4009 107.766 61 106z"/>
<path style="fill:#f7e2dd; stroke:none;" d="M63.6667 106.333C63.2223 106.778 64.2778 106.722 64.3333 106.667C64.7778 106.222 63.7222 106.278 63.6667 106.333z"/>
<path style="fill:#eaa07d; stroke:none;" d="M73 106L73 111C73.8299 108.97 73.8299 108.03 73 106z"/>
<path style="fill:#f1c9bc; stroke:none;" d="M106 106L107 107L106 106z"/>
<path style="fill:#eba370; stroke:none;" d="M107 106L107 109C107.696 107.446 107.696 107.554 107 106z"/>
<path style="fill:#e89470; stroke:none;" d="M162 106L163 107L162 106z"/>
<path style="fill:#ea9c66; stroke:none;" d="M175 106L176 107L175 106z"/>
<path style="fill:#e5814b; stroke:none;" d="M181.667 106.333C181.222 106.778 182.278 106.722 182.333 106.667C182.778 106.222 181.722 106.278 181.667 106.333z"/>
<path style="fill:#e78f66; stroke:none;" d="M188 106L189 107L188 106z"/>
<path style="fill:#e37215; stroke:none;" d="M32 107L32 112C32.8299 109.97 32.8299 109.03 32 107z"/>
<path style="fill:#f3c3ac; stroke:none;" d="M35.6667 107.333C35.2222 107.778 36.2778 107.722 36.3333 107.667C36.7778 107.222 35.7222 107.278 35.6667 107.333z"/>
<path style="fill:#f1b98a; stroke:none;" d="M48 107C49.9024 108.156 50.7218 108.156 53 108L53 111C51.1434 110.806 49.8467 110.79 48 111C50.0521 111.874 51.7472 111.953 54 112L54 107L48 107M65 107C65.5451 108.635 65.3648 108.455 67 109C65.4038 110.966 64.0704 112.717 63 115C65.1661 113.836 67.0338 112.486 69 111C68.03 108.508 67.5251 107.854 65 107z"/>
<path style="fill:#efbdab; stroke:none;" d="M69.6667 107.333C69.2222 107.778 70.2778 107.722 70.3333 107.667C70.7778 107.222 69.7222 107.278 69.6667 107.333z"/>
<path style="fill:#eeac7b; stroke:none;" d="M121 107C122.248 107.685 122.548 107.749 124 108C122.752 107.315 122.452 107.251 121 107M129 107C131.332 107.985 133.457 107.981 136 108C133.668 107.015 131.543 107.019 129 107M150 107C152.89 108.213 155.874 107.998 159 108C156.11 106.787 153.126 107.002 150 107M163 107C165.332 107.985 167.457 107.981 170 108C167.668 107.015 165.543 107.019 163 107M176 107C177.769 107.779 179.036 107.912 181 108C179.231 107.221 177.964 107.088 176 107M183 107C184.769 107.779 186.036 107.912 188 108C186.231 107.221 184.964 107.088 183 107z"/>
<path style="fill:#f1b98a; stroke:none;" d="M11 108C14.0883 111.534 21.5689 110 26 110C21.4297 108.082 15.8943 109.165 11 108z"/>
<path style="fill:#f1c9bc; stroke:none;" d="M12 108C16.5703 109.918 22.1057 108.835 27 110C23.9117 106.466 16.4311 108 12 108z"/>
<path style="fill:#f8e6e0; stroke:none;" d="M31 108L31 111C31.6961 109.446 31.6961 109.554 31 108z"/>
<path style="fill:#eeb8a6; stroke:none;" d="M34 108L35 109L34 108z"/>
<path style="fill:#e89470; stroke:none;" d="M35.6667 108.333C35.2222 108.778 36.2778 108.722 36.3333 108.667C36.7778 108.222 35.7222 108.278 35.6667 108.333z"/>
<path style="fill:#f1cbbf; stroke:none;" d="M36 109C37.7885 110.422 38.7057 110.697 41 111L41 108C39.1218 108.176 37.8006 108.438 36 109z"/>
<path style="fill:#efb383; stroke:none;" d="M41.3333 108.667C41.2778 108.722 41.2222 109.778 41.6667 109.333C41.7222 109.278 41.7778 108.222 41.3333 108.667z"/>
<path style="fill:#e47937; stroke:none;" d="M42 108L43 109L42 108z"/>
<path style="fill:#f2c9ba; stroke:none;" d="M43 108L44 109L43 108z"/>
<path style="fill:#e78f66; stroke:none;" d="M48 108L48 111C48.6961 109.446 48.6961 109.554 48 108z"/>
<path style="fill:#f1c9bc; stroke:none;" d="M50 108C51.2483 108.685 51.5484 108.749 53 109C51.7516 108.315 51.4516 108.251 50 108z"/>
<path style="fill:#f4d8cf; stroke:none;" d="M54 108L54 111C54.6961 109.446 54.6961 109.554 54 108z"/>
<path style="fill:#f1ccc1; stroke:none;" d="M56 108L56 111C56.6961 109.446 56.6961 109.554 56 108z"/>
<path style="fill:#f1b98a; stroke:none;" d="M59 108L60 112C60.393 110.076 60.1456 109.64 59 108z"/>
<path style="fill:#e68343; stroke:none;" d="M61 108L62 109L61 108z"/>
<path style="fill:#f3d4cb; stroke:none;" d="M62.6667 108.333C62.2222 108.778 63.2778 108.722 63.3333 108.667C63.7778 108.222 62.7222 108.278 62.6667 108.333z"/>
<path style="fill:#fdf8f6; stroke:none;" d="M64 108C64.0313 109.832 63.9205 109.559 65 111C64.7488 109.548 64.6848 109.248 64 108z"/>
<path style="fill:#e99962; stroke:none;" d="M65 108L65 111C65.6961 109.446 65.6961 109.554 65 108z"/>
<path style="fill:#f7ded6; stroke:none;" d="M68 108L69 111C69.6848 109.752 69.7488 109.452 70 108L68 108z"/>
<path style="fill:#e37215; stroke:none;" d="M70 108L70 111C70.6961 109.446 70.6961 109.554 70 108z"/>
<path style="fill:#eeb8a6; stroke:none;" d="M110 108L111 109L110 108z"/>
<path style="fill:#e37215; stroke:none;" d="M34 109L35 110L34 109z"/>
<path style="fill:#f7e0d9; stroke:none;" d="M35 109L36 110L35 109z"/>
<path style="fill:#ffffff; stroke:none;" d="M38.6667 109.333C38.2222 109.778 39.2778 109.722 39.3333 109.667C39.7778 109.222 38.7222 109.278 38.6667 109.333z"/>
<path style="fill:#fbf2ef; stroke:none;" d="M42 109L43 110L42 109z"/>
<path style="fill:#eeb294; stroke:none;" d="M43.3333 109.667C43.2778 109.722 43.2222 110.778 43.6667 110.333C43.7222 110.278 43.7778 109.222 43.3333 109.667z"/>
<path style="fill:#ffffff; stroke:none;" d="M49 109C50.5061 109.683 51.3148 109.826 53 110C51.494 109.317 50.6852 109.174 49 109M60 109L61 110L60 109z"/>
<path style="fill:#eeb6a3; stroke:none;" d="M61.6667 109.333C61.2222 109.778 62.2778 109.722 62.3333 109.667C62.7778 109.222 61.7222 109.278 61.6667 109.333z"/>
<path style="fill:#ffffff; stroke:none;" d="M66 109L67 110L66 109z"/>
<path style="fill:#e78c50; stroke:none;" d="M102 109C103.769 109.779 105.036 109.912 107 110C105.231 109.221 103.964 109.088 102 109z"/>
<path style="fill:#fbf3f0; stroke:none;" d="M28 110L28 127C29.8826 122.514 29.8826 114.486 28 110z"/>
<path style="fill:#ecaf99; stroke:none;" d="M34 110L35 111L34 110z"/>
<path style="fill:#e78f66; stroke:none;" d="M35.6667 110.333C35.2222 110.778 36.2778 110.722 36.3333 110.667C36.7777 110.222 35.7222 110.278 35.6667 110.333z"/>
<path style="fill:#e5814b; stroke:none;" d="M41.6667 110.333C41.2222 110.778 42.2778 110.722 42.3333 110.667C42.7777 110.222 41.7222 110.278 41.6667 110.333z"/>
<path style="fill:#f1c9bc; stroke:none;" d="M50 110C51.2484 110.685 51.5484 110.749 53 111C51.7516 110.315 51.4516 110.251 50 110z"/>
<path style="fill:#e6894c; stroke:none;" d="M61 110L62 111L61 110z"/>
<path style="fill:#f6ddd6; stroke:none;" d="M62.6667 110.333C62.2222 110.778 63.2778 110.722 63.3333 110.667C63.7777 110.222 62.7222 110.278 62.6667 110.333z"/>
<path style="fill:#edaa79; stroke:none;" d="M109 110L110 111L109 110z"/>
<path style="fill:#eeaf7e; stroke:none;" d="M35 111C36.9185 112.144 37.7319 112.174 40 112C38.231 111.221 36.9641 111.088 35 111z"/>
<path style="fill:#e47937; stroke:none;" d="M40.3333 111.667C40.2778 111.722 40.2222 112.778 40.6667 112.333C40.7222 112.278 40.7778 111.222 40.3333 111.667z"/>
<path style="fill:#f4cdbd; stroke:none;" d="M41.6667 111.333C41.2222 111.778 42.2778 111.722 42.3333 111.667C42.7778 111.222 41.7222 111.278 41.6667 111.333z"/>
<path style="fill:#f5d2c5; stroke:none;" d="M61.3333 111.667C61.2778 111.722 61.2222 112.778 61.6667 112.333C61.7222 112.278 61.7778 111.222 61.3333 111.667z"/>
<path style="fill:#e78f66; stroke:none;" d="M62 114L65 112C62.8603 110.882 62.4732 111.749 62 114z"/>
<path style="fill:#ffffff; stroke:none;" d="M68 111C66.6085 112.406 65.9265 113.271 65 115C67.1435 113.869 68.0986 113.432 68 111z"/>
<path style="fill:#f0bd9d; stroke:none;" d="M68 114C69.9225 113.098 69.9988 112.924 71 111C69.0775 111.902 69.0012 112.076 68 114z"/>
<path style="fill:#e9955e; stroke:none;" d="M73 111C72.3906 116.71 72.3747 123.312 73 129C74.9516 124.349 74.9516 115.651 73 111z"/>
<path style="fill:#ea9e69; stroke:none;" d="M102 111C104.332 111.985 106.457 111.981 109 112C106.668 111.015 104.543 111.019 102 111z"/>
<path style="fill:#f2d0c6; stroke:none;" d="M32 112L33 113L32 112z"/>
<path style="fill:#eba27c; stroke:none;" d="M33.3333 112.667C33.2778 112.722 33.2222 113.778 33.6667 113.333C33.7222 113.278 33.7778 112.222 33.3333 112.667z"/>
<path style="fill:#f3cbbb; stroke:none;" d="M38.6667 112.333C38.2222 112.778 39.2778 112.722 39.3333 112.667C39.7778 112.222 38.7222 112.278 38.6667 112.333z"/>
<path style="fill:#f7e2dd; stroke:none;" d="M63.6667 112.333C63.2223 112.778 64.2778 112.722 64.3333 112.667C64.7778 112.222 63.7222 112.278 63.6667 112.333z"/>
<path style="fill:#f0c2b4; stroke:none;" d="M72.3333 112.667C72.2778 112.722 72.2222 113.778 72.6667 113.333C72.7222 113.278 72.7778 112.222 72.3333 112.667z"/>
<path style="fill:#f3cec0; stroke:none;" d="M34 113L35 114L34 113z"/>
<path style="fill:#e89664; stroke:none;" d="M38.6667 113.333C38.2222 113.778 39.2778 113.722 39.3333 113.667C39.7778 113.222 38.7222 113.278 38.6667 113.333z"/>
<path style="fill:#f3cab5; stroke:none;" d="M43 113L44 114L43 113z"/>
<path style="fill:#e57d41; stroke:none;" d="M58 113L59 114L58 113z"/>
<path style="fill:#e37215; stroke:none;" d="M34 114L35 115L34 114z"/>
<path style="fill:#efbdac; stroke:none;" d="M35 114C36.6547 116.286 38.2194 116.542 41 117C39.3519 115.022 37.5002 114.688 35 114z"/>
<path style="fill:#edaa79; stroke:none;" d="M42 114L41 116L43 116C43 114.147 43.2997 114.65 42 114z"/>
<path style="fill:#e57d37; stroke:none;" d="M43 114L44 115L43 114M59 114L60 115L59 114z"/>
<path style="fill:#f5d2c5; stroke:none;" d="M64 114L62 115C63.482 115.791 64.7964 115.87 64 114z"/>
<path style="fill:#e68759; stroke:none;" d="M67.6667 114.333C67.2222 114.778 68.2778 114.722 68.3333 114.667C68.7778 114.222 67.7222 114.278 67.6667 114.333z"/>
<path style="fill:#f1b98a; stroke:none;" d="M47 115C48.2483 115.685 48.5484 115.749 50 116C48.7516 115.315 48.4516 115.251 47 115M52 115C53.2483 115.685 53.5484 115.749 55 116C53.7517 115.315 53.4516 115.251 52 115z"/>
<path style="fill:#eca572; stroke:none;" d="M60.6667 115.333C60.2222 115.778 61.2778 115.722 61.3333 115.667C61.7777 115.222 60.7223 115.278 60.6667 115.333z"/>
<path style="fill:#e78e65; stroke:none;" d="M65.6667 115.333C65.2222 115.778 66.2778 115.722 66.3333 115.667C66.7778 115.222 65.7222 115.278 65.6667 115.333z"/>
<path style="fill:#f2c3a6; stroke:none;" d="M67 115L68 116L67 115z"/>
<path style="fill:#e37215; stroke:none;" d="M72 115L71 128C73.6601 124.489 73.6905 119.029 72 115z"/>
<path style="fill:#eaa58b; stroke:none;" d="M38.6667 116.333C38.2222 116.778 39.2778 116.722 39.3333 116.667C39.7778 116.222 38.7222 116.278 38.6667 116.333M62 116C63.506 116.683 64.3148 116.826 66 117C64.4939 116.317 63.6852 116.174 62 116z"/>
<path style="fill:#f5d2c5; stroke:none;" d="M45 117C48.6975 118.552 53.0168 118 57 118C53.3025 116.448 48.9832 117 45 117z"/>
<path style="fill:#f7ded6; stroke:none;" d="M71 117L71 120C71.6961 118.446 71.6961 118.554 71 117z"/>
<path style="fill:#e37215; stroke:none;" d="M45 118C48.6975 119.552 53.0168 119 57 119C53.3025 117.448 48.9832 118 45 118z"/>
<path style="fill:#eca580; stroke:none;" d="M57 118L57 120L59 120C58.4549 118.365 58.6352 118.545 57 118z"/>
<path style="fill:#e78f66; stroke:none;" d="M44.3333 119.667C44.2778 119.722 44.2222 120.778 44.6667 120.333C44.7222 120.278 44.7778 119.222 44.3333 119.667z"/>
<path style="fill:#f2c3a6; stroke:none;" d="M45 119L46 120L45 119z"/>
<path style="fill:#f2c0a9; stroke:none;" d="M43 120L44 121L43 120z"/>
<path style="fill:#e37215; stroke:none;" d="M58 120L59 121L58 120z"/>
<path style="fill:#eeac7b; stroke:none;" d="M71 120L71 123C71.6961 121.446 71.6961 121.554 71 120z"/>
<path style="fill:#e99760; stroke:none;" d="M43 121L44 122L43 121z"/>
<path style="fill:#edaa79; stroke:none;" d="M59 121C59.6836 122.58 59.8048 122.777 61 124C60.3164 122.42 60.1952 122.223 59 121z"/>
<path style="fill:#eba37c; stroke:none;" d="M42 122C41.0143 123.479 41 123.203 41 125C42.2892 123.557 42.4009 123.766 42 122z"/>
<path style="fill:#f3cbbb; stroke:none;" d="M43 122L44 123L43 122z"/>
<path style="fill:#efb694; stroke:none;" d="M61 124L61 126L63 126C62.4549 124.365 62.6352 124.545 61 124z"/>
<path style="fill:#e68648; stroke:none;" d="M40 125L41 126L40 125z"/>
<path style="fill:#f5d1bd; stroke:none;" d="M41 125L42 126L41 125z"/>
<path style="fill:#ea9a6b; stroke:none;" d="M39 126L39 128C40.6352 127.455 40.4549 127.635 41 126L39 126z"/>
<path style="fill:#e47937; stroke:none;" d="M62 126L63 127L62 126z"/>
<path style="fill:#f1bca0; stroke:none;" d="M63 126L63 129C63.6961 127.446 63.6961 127.554 63 126z"/>
<path style="fill:#f1c7b9; stroke:none;" d="M70.3333 126.667C70.2778 126.722 70.2222 127.778 70.6667 127.333C70.7222 127.278 70.7778 126.222 70.3333 126.667z"/>
<path style="fill:#e37215; stroke:none;" d="M38 128L39 129L38 128z"/>
<path style="fill:#e8935b; stroke:none;" d="M64.3333 128.667C64.2778 128.722 64.2222 129.778 64.6667 129.333C64.7222 129.278 64.7778 128.222 64.3333 128.667z"/>
<path style="fill:#eba16e; stroke:none;" d="M70 128L70 130C71.6352 129.455 71.4549 129.635 72 128L70 128z"/>
<path style="fill:#f6dfd8; stroke:none;" d="M72 128L73 129L72 128z"/>
<path style="fill:#f1c1a3; stroke:none;" d="M65 129L66 130L65 129z"/>
<path style="fill:#f4d3c7; stroke:none;" d="M71 129L72 130L71 129z"/>
<path style="fill:#e68648; stroke:none;" d="M72 129L73 130L72 129z"/>
<path style="fill:#e78e54; stroke:none;" d="M65 130L66 131L65 130z"/>
<path style="fill:#eba283; stroke:none;" d="M66 130C67.5398 131.803 68.5975 131.832 71 132C69.3519 131.076 67.825 130.551 66 130z"/>
<path style="fill:#f1ccc1; stroke:none;" d="M70 130L71 131L70 130z"/>
<path style="fill:#e6894c; stroke:none;" d="M71 130L72 131L71 130z"/>
</svg>
